<svg xmlns="http://www.w3.org/2000/svg" viewBox="0 0 500 500"><g id="freepik--Floor--inject-440"><polygon points="485.82 196.02 485.82 467.98 16.17 467.98 485.82 196.02" style="fill:#fafafa"></polygon><path d="M16.17,468.6a.63.63,0,0,1-.54-.31.62.62,0,0,1,.23-.85L485.69,196a.62.62,0,1,1,.62,1.08L16.48,468.52A.68.68,0,0,1,16.17,468.6Z" style="fill:#e0e0e0"></path></g><g id="freepik--Shadows--inject-440"><ellipse id="freepik--Shadow--inject-440" cx="430.77" cy="371.62" rx="45.94" ry="26.52" style="fill:#f0f0f0"></ellipse><ellipse id="freepik--shadow--inject-440" cx="342.96" cy="357.29" rx="36.85" ry="21.27" style="fill:#f0f0f0"></ellipse><ellipse id="freepik--shadow--inject-440" cx="278.44" cy="393.73" rx="40.28" ry="23.25" style="fill:#f0f0f0"></ellipse><g id="freepik--shadow--inject-440"><polygon points="307.25 258.77 183.14 330.42 183.14 371.37 307.25 299.72 307.25 258.77" style="fill:#e0e0e0"></polygon><polygon points="307.25 299.72 183.14 371.37 236.33 402.07 360.43 330.43 307.25 299.72" style="fill:#f0f0f0"></polygon></g></g><g id="freepik--Signs--inject-440"><g id="freepik--Graphic--inject-440"><path d="M291.33,44.44c1.38,0,1.53,1.59,1.53,2.28V61.4a9.39,9.39,0,0,1-4.18,7.23L187.32,127.15a3.21,3.21,0,0,1-1.56.5c-1.38,0-1.53-1.59-1.53-2.28V110.69a9.42,9.42,0,0,1,4.18-7.24L289.77,44.94a3.21,3.21,0,0,1,1.56-.5m0-1.1a4.29,4.29,0,0,0-2.11.65L187.87,102.51a10.44,10.44,0,0,0-4.73,8.18v14.68c0,2.14,1.07,3.37,2.62,3.37a4.27,4.27,0,0,0,2.11-.64L289.22,69.58A10.45,10.45,0,0,0,294,61.4V46.72c0-2.14-1.07-3.38-2.62-3.38Z" style="fill:#e0e0e0"></path><path d="M187.87,128.1,205.3,118V92.44l-17.43,10.07a10.44,10.44,0,0,0-4.73,8.18v14.68C183.14,128.38,185.26,129.6,187.87,128.1Z" style="fill:#BA68C8"></path><path d="M194.22,104c3.67-2.12,6.65-.41,6.65,3.83a14.71,14.71,0,0,1-6.65,11.52c-3.67,2.12-6.65.4-6.65-3.84A14.69,14.69,0,0,1,194.22,104Z" style="fill:#fafafa"></path><path d="M214.17,105.51a.27.27,0,0,1-.24-.14.27.27,0,0,1,.1-.37l31-17.88,8.83-15.29.1-.1,31-17.91a.28.28,0,0,1,.37.1.27.27,0,0,1-.1.37l-31,17.88-8.83,15.29a.32.32,0,0,1-.1.1l-31,17.91A.22.22,0,0,1,214.17,105.51Z" style="fill:#BA68C8"></path><path d="M214.17,103.36c.9-.52,1.62-.1,1.62.94a3.58,3.58,0,0,1-1.62,2.81c-.9.52-1.63.1-1.63-.94A3.59,3.59,0,0,1,214.17,103.36Z" style="fill:#455a64"></path><path d="M223,99c.55-.31,1-.06,1,.58a2.21,2.21,0,0,1-1,1.73c-.55.32-1,.06-1-.58A2.23,2.23,0,0,1,223,99Z" style="fill:#BA68C8"></path><path d="M231.9,93.85c.55-.32,1-.06,1,.57a2.21,2.21,0,0,1-1,1.73c-.55.32-1,.06-1-.58A2.19,2.19,0,0,1,231.9,93.85Z" style="fill:#BA68C8"></path><path d="M240.76,88.73c.55-.32,1-.06,1,.57a2.21,2.21,0,0,1-1,1.73c-.55.32-1,.06-1-.57A2.21,2.21,0,0,1,240.76,88.73Z" style="fill:#BA68C8"></path><path d="M258.49,68.26c.55-.32,1-.06,1,.57a2.21,2.21,0,0,1-1,1.73c-.55.32-1,.06-1-.57A2.21,2.21,0,0,1,258.49,68.26Z" style="fill:#BA68C8"></path><path d="M267.35,63.14c.56-.32,1-.06,1,.58a2.17,2.17,0,0,1-1,1.72c-.55.32-1,.06-1-.57A2.2,2.2,0,0,1,267.35,63.14Z" style="fill:#BA68C8"></path><path d="M276.22,58c.55-.32,1-.06,1,.58a2.23,2.23,0,0,1-1,1.73c-.55.31-1,.06-1-.58A2.21,2.21,0,0,1,276.22,58Z" style="fill:#BA68C8"></path><path d="M285.08,52.18c.9-.52,1.63-.1,1.63.94a3.58,3.58,0,0,1-1.63,2.81c-.89.52-1.62.1-1.62-.93A3.61,3.61,0,0,1,285.08,52.18Z" style="fill:#455a64"></path><polygon points="214.17 92.44 214.17 94.58 225.26 88.17 225.26 86.03 214.17 92.44" style="fill:#BA68C8"></polygon><polygon points="214.17 96.71 214.17 98.85 225.26 92.44 225.26 90.31 214.17 96.71" style="fill:#BA68C8"></polygon><polygon points="214.17 96.71 214.17 98.85 225.26 92.44 225.26 90.31 214.17 96.71" style="opacity:0.30000000000000004"></polygon><polygon points="258.49 75.81 258.49 77.94 269.57 71.54 269.57 69.41 258.49 75.81" style="fill:#BA68C8"></polygon><polygon points="258.49 75.81 258.49 77.94 269.57 71.54 269.57 69.41 258.49 75.81" style="opacity:0.30000000000000004"></polygon><polygon points="258.49 80.07 258.49 82.2 269.57 75.81 269.57 73.68 258.49 80.07" style="fill:#BA68C8"></polygon><path d="M227.46,86.31a.27.27,0,0,1-.13-.51l13.3-7.68a.27.27,0,0,1,.37.1.27.27,0,0,1-.1.37l-13.3,7.68A.23.23,0,0,1,227.46,86.31Z" style="fill:#e0e0e0"></path><path d="M227.46,90.15a.27.27,0,0,1-.13-.51L240.63,82a.27.27,0,0,1,.37.1.27.27,0,0,1-.1.37l-13.3,7.68A.33.33,0,0,1,227.46,90.15Z" style="fill:#e0e0e0"></path><path d="M271.78,69.7a.27.27,0,0,1-.13-.51l13.29-7.68a.28.28,0,0,1,.38.1.27.27,0,0,1-.1.37l-13.3,7.68A.33.33,0,0,1,271.78,69.7Z" style="fill:#e0e0e0"></path><path d="M271.78,73.54a.27.27,0,0,1-.13-.51l13.29-7.68a.28.28,0,0,1,.38.1.27.27,0,0,1-.1.37l-13.3,7.68A.33.33,0,0,1,271.78,73.54Z" style="fill:#e0e0e0"></path></g><g id="freepik--graphic--inject-440"><path d="M57.22,203.5a3,3,0,0,1-1.5-.39,3.83,3.83,0,0,1-1.66-3.53V184.9a11.08,11.08,0,0,1,5-8.66l88.06-50.84a3.41,3.41,0,0,1,5.54,3.2v14.68a11.06,11.06,0,0,1-5,8.66L59.6,202.78A4.82,4.82,0,0,1,57.22,203.5Zm92.28-77.73a3.77,3.77,0,0,0-1.83.58L59.6,177.19a9.87,9.87,0,0,0-4.45,7.71v14.68a2.85,2.85,0,0,0,1.11,2.59,2.83,2.83,0,0,0,2.8-.34L147.12,151a9.84,9.84,0,0,0,4.45-7.71V128.6a2.79,2.79,0,0,0-1.11-2.58A1.81,1.81,0,0,0,149.5,125.77Z" style="fill:#e0e0e0"></path><path d="M63.47,187.12c0,4.24,3,6,6.65,3.84a14.69,14.69,0,0,0,6.65-11.51c0-4.24-3-6-6.65-3.84A14.69,14.69,0,0,0,63.47,187.12Z" style="fill:#BA68C8"></path><path d="M86.81,168.53l37.53-21.67c.65-.38,1.18-.11,1.18.6a2.54,2.54,0,0,1-1.18,2L86.81,171.09c-.65.37-1.18.11-1.18-.6A2.52,2.52,0,0,1,86.81,168.53Z" style="fill:#e0e0e0"></path><path d="M86.81,176.2l37.53-21.66c.65-.38,1.18-.11,1.18.6a2.55,2.55,0,0,1-1.18,2L86.81,178.76c-.65.38-1.18.11-1.18-.59A2.55,2.55,0,0,1,86.81,176.2Z" style="fill:#e0e0e0"></path><path d="M134.39,143.62c1.22-.71,2.21-.13,2.21,1.28a4.92,4.92,0,0,1-2.21,3.84c-1.23.7-2.22.13-2.22-1.28A4.88,4.88,0,0,1,134.39,143.62Z" style="fill:#BA68C8"></path><path d="M143.25,138.5c1.23-.7,2.22-.13,2.22,1.28a4.9,4.9,0,0,1-2.22,3.84c-1.22.71-2.21.13-2.21-1.28A4.92,4.92,0,0,1,143.25,138.5Z" style="fill:#455a64"></path></g><g id="freepik--Light--inject-440"><path d="M54.61,161.2v-4.48a10.43,10.43,0,0,1,4.72-8.18L147.39,97.7c2.61-1.51,4.73-.29,4.73,2.72v4.48a10.44,10.44,0,0,1-4.73,8.18L59.33,163.92C56.72,165.43,54.61,164.21,54.61,161.2Z" style="fill:#BA68C8"></path><path d="M54.61,161.2v-4.48a10.43,10.43,0,0,1,4.72-8.18L147.39,97.7c2.61-1.51,4.73-.29,4.73,2.72v4.48a10.44,10.44,0,0,1-4.73,8.18L59.33,163.92C56.72,165.43,54.61,164.21,54.61,161.2Z" style="fill:#fff;opacity:0.7000000000000001"></path><path d="M57.22,165.07a3,3,0,0,1-1.48-.38,3.8,3.8,0,0,1-1.63-3.49v-4.48a11,11,0,0,1,5-8.62l88.06-50.84a3.37,3.37,0,0,1,5.48,3.16v4.48a11,11,0,0,1-5,8.62L59.58,164.36A4.8,4.8,0,0,1,57.22,165.07ZM149.5,97.55a3.76,3.76,0,0,0-1.86.58L59.58,149a9.9,9.9,0,0,0-4.47,7.75v4.48a2.39,2.39,0,0,0,4,2.29l88.06-50.84a9.91,9.91,0,0,0,4.48-7.75v-4.48a2.85,2.85,0,0,0-1.14-2.62A1.88,1.88,0,0,0,149.5,97.55Z" style="fill:#BA68C8"></path></g><g id="freepik--Ventilation--inject-440"><path d="M185.36,79a1.09,1.09,0,0,1-.55-2L224.7,54a1.09,1.09,0,0,1,1.49.4,1.07,1.07,0,0,1-.4,1.49l-39.89,23A1.17,1.17,0,0,1,185.36,79Z" style="fill:#455a64"></path><path d="M185.36,84.29a1.09,1.09,0,0,1-.55-2l39.89-23a1.09,1.09,0,0,1,1.09,1.89l-39.89,23A1.06,1.06,0,0,1,185.36,84.29Z" style="fill:#455a64"></path><path d="M185.36,89.54a1.09,1.09,0,0,1-.55-2l39.89-23a1.09,1.09,0,0,1,1.09,1.89l-39.89,23A1.06,1.06,0,0,1,185.36,89.54Z" style="fill:#455a64"></path><path d="M243,46a1.09,1.09,0,0,1-.55-2l39.89-23a1.09,1.09,0,0,1,1.09,1.89l-39.89,23A1.06,1.06,0,0,1,243,46Z" style="fill:#455a64"></path><path d="M243,51.27a1.09,1.09,0,0,1-.55-2l39.89-23a1.09,1.09,0,0,1,1.09,1.89l-39.89,23A1.06,1.06,0,0,1,243,51.27Z" style="fill:#455a64"></path><path d="M243,56.53a1.09,1.09,0,0,1-.55-2l39.89-23a1.09,1.09,0,0,1,1.09,1.89l-39.89,23A1.08,1.08,0,0,1,243,56.53Z" style="fill:#455a64"></path></g></g><g id="freepik--Door--inject-440"><g id="freepik--door--inject-440"><path d="M161,384.16V169.89c0-6-4.23-8.47-9.45-5.46L55.19,220.05c-5.22,3-9.45,10.34-9.45,16.37V450.69Z" style="fill:#fafafa"></path><path d="M45.74,451.24a.53.53,0,0,1-.54-.55V236.42c0-6.19,4.36-13.75,9.72-16.84L151.26,164c2.7-1.56,5.27-1.8,7.23-.67s3,3.48,3,6.6V384.16a.53.53,0,0,1-.28.47L46,451.17A.55.55,0,0,1,45.74,451.24Zm110-287.56a8.09,8.09,0,0,0-3.95,1.22L55.47,220.52c-5.07,2.92-9.18,10.06-9.18,15.9V449.75l114.15-65.9v-214c0-2.72-.89-4.72-2.5-5.65A4.38,4.38,0,0,0,155.75,163.68ZM161,384.16h0Z" style="fill:#e0e0e0"></path><path d="M103.36,418a.54.54,0,0,1-.54-.54V192.24a.55.55,0,0,1,.54-.55.55.55,0,0,1,.55.55V417.43A.55.55,0,0,1,103.36,418Z" style="fill:#e0e0e0"></path><path d="M90.07,228.57v70.64A15.65,15.65,0,0,1,83,311.48l-16.85,9.73c-3.92,2.26-7.09.43-7.09-4.09V246.48a15.66,15.66,0,0,1,7.09-12.27L83,224.48C86.89,222.22,90.07,224.05,90.07,228.57Z" style="fill:#455a64"></path><path d="M63,318.91c-.63,0-.65-1.6-.65-1.79V246.48A12.46,12.46,0,0,1,67.76,237l16.86-9.72a3.17,3.17,0,0,1,1.52-.53c.63,0,.65,1.6.65,1.78v70.64a12.43,12.43,0,0,1-5.45,9.44l-16.85,9.73A3.19,3.19,0,0,1,63,318.91Z" style="fill:#BA68C8"></path><path d="M147.68,195.31v70.63a15.68,15.68,0,0,1-7.08,12.28L123.75,288c-3.92,2.26-7.09.43-7.09-4.09V213.22a15.66,15.66,0,0,1,7.09-12.28l16.85-9.73C144.51,189,147.68,190.79,147.68,195.31Z" style="fill:#455a64"></path><path d="M120.58,285.64c-.63,0-.65-1.6-.65-1.78V213.22a12.45,12.45,0,0,1,5.45-9.44l16.85-9.73a3.22,3.22,0,0,1,1.53-.53c.63,0,.65,1.6.65,1.79v70.63a12.43,12.43,0,0,1-5.45,9.44l-16.85,9.73A3.22,3.22,0,0,1,120.58,285.64Z" style="fill:#BA68C8"></path></g><g id="freepik--Tape--inject-440"><polygon points="52.47 457.14 172.14 388.04 178.71 391.84 59.06 460.93 52.47 457.14" style="fill:#BA68C8"></polygon><polygon points="56.9 454.58 67.92 455.81 72.35 453.25 61.33 452.02 56.9 454.58" style="fill:#455a64"></polygon><polygon points="70.18 446.9 81.2 448.14 85.63 445.58 74.61 444.34 70.18 446.9" style="fill:#455a64"></polygon><polygon points="83.47 439.23 94.48 440.46 98.92 437.9 87.9 436.67 83.47 439.23" style="fill:#455a64"></polygon><polygon points="96.75 431.55 107.77 432.78 112.2 430.23 101.18 428.99 96.75 431.55" style="fill:#455a64"></polygon><polygon points="110.03 423.87 121.05 425.11 125.48 422.55 114.46 421.31 110.03 423.87" style="fill:#455a64"></polygon><polygon points="123.31 416.19 134.33 417.43 138.76 414.87 127.74 413.64 123.31 416.19" style="fill:#455a64"></polygon><polygon points="136.59 408.52 147.61 409.75 152.04 407.19 141.02 405.96 136.59 408.52" style="fill:#455a64"></polygon><polygon points="149.87 400.84 160.89 402.08 165.32 399.52 154.31 398.28 149.87 400.84" style="fill:#455a64"></polygon><polygon points="163.16 393.17 174.18 394.4 178.61 391.84 167.59 390.61 163.16 393.17" style="fill:#455a64"></polygon></g></g><g id="freepik--Window--inject-440"><g id="freepik--window--inject-440"><path d="M183.14,230.12V154.36a15.67,15.67,0,0,1,7.09-12.27L291.29,83.74c3.92-2.26,7.09-.43,7.09,4.09v75.76a15.64,15.64,0,0,1-7.09,12.27L190.23,234.21C186.32,236.47,183.14,234.64,183.14,230.12Z" style="fill:#455a64"></path><path d="M187.06,231.9c-.63,0-.64-1.6-.64-1.78V154.36a12.43,12.43,0,0,1,5.45-9.44L292.93,86.57a3.36,3.36,0,0,1,1.53-.53c.63,0,.65,1.61.65,1.79v75.76a12.46,12.46,0,0,1-5.45,9.44L188.59,231.38A3.22,3.22,0,0,1,187.06,231.9Z" style="fill:#BA68C8"></path><polygon points="239.44 141.52 242.09 139.99 242.09 112.15 239.44 113.68 239.44 141.52" style="fill:#455a64"></polygon><rect x="176.14" y="138.59" width="129.8" height="3.27" transform="translate(-37.82 139.31) rotate(-30)" style="fill:#455a64"></rect></g></g><g id="freepik--Seats--inject-440"><g id="freepik--Sit--inject-440"><g id="freepik--sit--inject-440"><polygon points="187.58 332.98 187.58 348.34 218.6 366.25 218.6 350.9 187.58 332.98" style="fill:#455a64"></polygon><polygon points="218.6 366.25 231.9 358.57 218.6 350.9 218.6 366.25" style="fill:#37474f"></polygon><polygon points="236.33 345.78 196.44 322.75 196.44 322.75 192.01 263.89 183.14 258.77 183.14 330.42 236.33 361.13 236.33 345.78" style="fill:#BA68C8"></polygon><polygon points="236.33 345.78 196.44 322.75 196.44 322.75 192.01 263.89 183.14 258.77 183.14 330.42 236.33 361.13 236.33 345.78" style="fill:#fff;opacity:0.65"></polygon><polygon points="236.33 345.78 196.44 322.75 196.44 322.75 192.01 263.89 183.14 258.77 183.14 330.42 236.33 361.13 236.33 345.78" style="opacity:0.15"></polygon><polygon points="236.33 345.78 360.43 274.13 360.43 289.48 236.33 361.13 236.33 345.78" style="fill:#BA68C8"></polygon><polygon points="236.33 345.78 360.43 274.13 360.43 289.48 236.33 361.13 236.33 345.78" style="fill:#fff;opacity:0.7000000000000001"></polygon><polygon points="196.44 322.75 320.54 251.1 360.43 274.13 236.33 345.78 196.44 322.75" style="fill:#BA68C8"></polygon><polygon points="196.44 322.75 320.54 251.1 360.43 274.13 236.33 345.78 196.44 322.75" style="fill:#fff;opacity:0.85"></polygon><polygon points="307.25 187.12 183.14 258.77 192.01 263.89 316.11 192.24 307.25 187.12" style="fill:#BA68C8"></polygon><polygon points="307.25 187.12 183.14 258.77 192.01 263.89 316.11 192.24 307.25 187.12" style="fill:#fff;opacity:0.85"></polygon><polygon points="316.11 192.24 320.54 251.1 196.44 322.75 192.01 263.89 316.11 192.24" style="fill:#BA68C8"></polygon><polygon points="316.11 192.24 320.54 251.1 196.44 322.75 192.01 263.89 316.11 192.24" style="fill:#fff;opacity:0.7000000000000001"></polygon><path d="M231.61,337.93a10.42,10.42,0,0,0,9.45,0l26-15c2.61-1.51,2.61-3.95,0-5.46l-30.73-17.74-35.46,20.47Z" style="fill:#BA68C8"></path><path d="M197.15,271.7a9.54,9.54,0,0,1,4.35-8.17l26-15c2.6-1.5,4.89-.29,5.1,2.72l3.72,48.49-35.46,20.47Z" style="fill:#BA68C8"></path><path d="M197.15,271.7a9.54,9.54,0,0,1,4.35-8.17l26-15c2.6-1.5,4.89-.29,5.1,2.72l3.72,48.49-35.46,20.47Z" style="opacity:0.15"></path><path d="M271.5,314.9a10.42,10.42,0,0,0,9.45,0l26-15c2.61-1.51,2.61-3.95,0-5.46l-30.73-17.74-35.46,20.47Z" style="fill:#BA68C8"></path><path d="M237,248.67a9.54,9.54,0,0,1,4.35-8.17l26-15c2.61-1.5,4.89-.29,5.1,2.72l3.72,48.49-35.46,20.47Z" style="fill:#BA68C8"></path><path d="M237,248.67a9.54,9.54,0,0,1,4.35-8.17l26-15c2.61-1.5,4.89-.29,5.1,2.72l3.72,48.49-35.46,20.47Z" style="opacity:0.15"></path><path d="M311.39,291.87a10.42,10.42,0,0,0,9.45,0l26-15c2.61-1.5,2.61-3.94,0-5.45l-30.73-17.74-35.46,20.47Z" style="fill:#BA68C8"></path><path d="M276.93,225.64a9.54,9.54,0,0,1,4.35-8.17l26-15c2.61-1.5,4.89-.29,5.1,2.72l3.72,48.49-35.46,20.47Z" style="fill:#BA68C8"></path><path d="M276.93,225.64a9.54,9.54,0,0,1,4.35-8.17l26-15c2.61-1.5,4.89-.29,5.1,2.72l3.72,48.49-35.46,20.47Z" style="opacity:0.15"></path></g></g></g><g id="freepik--character-3--inject-440"><g id="freepik--Character--inject-440"><g id="freepik--Bottom--inject-440"><path d="M412.37,350.09c-.09-3-.78-33-.78-33l14,11.31c-2.9,17.08-4,21.65-4.15,24.51h0a2.6,2.6,0,0,1,0,.73c-.17,3.4-4.09,5.06-7.18,7.19a56.38,56.38,0,0,1-8.34,4.91c-2.22,1-6.64.89-7.12-.54,3.77-2.61,8.12-5.45,11.16-8.5C411.42,355.2,412.48,353.67,412.37,350.09Z" style="fill:#ffbda7"></path><path d="M393.69,369.77a3,3,0,0,0,.59,3,13,13,0,0,0,9.51,2.07c4.71-.65,6-1.6,7.89-3.2s3.59-3.26,5.72-3.75c2-.45,5-1.27,5.61-1.89s.51-3.34.51-3.34Z" style="fill:#263238"></path><path d="M421.62,350.92a.84.84,0,0,1,.8.64c.15.75.33,2.93.65,4.16a30.7,30.7,0,0,1,.37,7.92c-.24,1.39-4.33,2.29-6.38,3.1a19.61,19.61,0,0,0-5.74,3.7,14.51,14.51,0,0,1-8.68,3.26c-3.64,0-7.74-1.13-8.69-2.81-1.18-2.08-1.36-4.08,4-6.62,1-.48,4.15-2.35,5.36-3.13a23.7,23.7,0,0,0,3.73-2.89,14.63,14.63,0,0,0,2.13-2.45,7.79,7.79,0,0,0,.65-1.64c.19-.59.35-1.18.48-1.78a1.31,1.31,0,0,1,.47-.9,1.19,1.19,0,0,1,.7-.06,18.79,18.79,0,0,1,3.63.78,2.2,2.2,0,0,1,1.22.76,2,2,0,0,1,.25,1,7.18,7.18,0,0,0,0,1,.58.58,0,0,0,.14.34c.19.19.48,0,.63-.11a14.25,14.25,0,0,0,1.44-1.75c.25-.32,1.39-.53,1.71-.78a9.78,9.78,0,0,0,.92-.61C421.77,351.77,421.61,351.36,421.62,350.92Z" style="fill:#37474f"></path><path d="M411.32,370.44a28.58,28.58,0,0,1,2.48-1.94h0s-5.72,2.32-8.3.6c-1.65-1.12-.88-2.49-.85-2.93s-4-2.28-5.65-2.45h0c-.44.25-.81.45-1.05.56-5.36,2.54-5.18,4.54-4,6.62.95,1.68,3.93,3,8.62,2.92A14.92,14.92,0,0,0,411.32,370.44Z" style="fill:#455a64"></path><path d="M405.09,364.88c-3.34,1.37-1.91,2-1,2.11s5.64-2.64,9.06-5.39,6.66-5.9,8-7c.49-.39,1-.88,1.49-1.33-.09-.73-.17-1.41-.24-1.76a.84.84,0,0,0-.8-.64l-.17,1.18a2.62,2.62,0,0,1-1,.51,4.26,4.26,0,0,0-1.65.88,14.25,14.25,0,0,1-1.44,1.75A38.36,38.36,0,0,1,405.09,364.88Z" style="fill:#263238"></path><path d="M404.36,366.49a.31.31,0,0,0,.2-.07.33.33,0,0,0,.05-.47,8,8,0,0,0-6.16-2.37.34.34,0,0,0-.29.37.32.32,0,0,0,.37.29,7.38,7.38,0,0,1,5.57,2.13A.3.3,0,0,0,404.36,366.49Z" style="fill:#f0f0f0"></path><path d="M407.27,364.82a.33.33,0,0,0,.26-.54,8,8,0,0,0-6.1-2.51.34.34,0,0,0-.3.36.33.33,0,0,0,.36.3,7.41,7.41,0,0,1,5.52,2.26A.35.35,0,0,0,407.27,364.82Z" style="fill:#f0f0f0"></path><path d="M410,362.92a.34.34,0,0,0,.21-.08.32.32,0,0,0,0-.46,8,8,0,0,0-6.16-2.37.33.33,0,1,0,.08.66,7.38,7.38,0,0,1,5.57,2.13A.34.34,0,0,0,410,362.92Z" style="fill:#f0f0f0"></path><path d="M412.33,361.2a.31.31,0,0,0,.21-.07.32.32,0,0,0,.07-.46,8,8,0,0,0-6.06-2.63.33.33,0,0,0-.3.36.31.31,0,0,0,.35.3,7.44,7.44,0,0,1,5.48,2.37A.31.31,0,0,0,412.33,361.2Z" style="fill:#f0f0f0"></path><path d="M414.88,359.18a.31.31,0,0,0,.21-.07.32.32,0,0,0,.07-.46,8.13,8.13,0,0,0-6.63-2.65.33.33,0,0,0,.05.66,7.56,7.56,0,0,1,6.05,2.39A.33.33,0,0,0,414.88,359.18Z" style="fill:#f0f0f0"></path><path d="M442.22,328.55l14-1.06c.41,9.63.44,19.29.78,28.33.64,3.18.05,14.28-.37,17.82-.62,5.31-6.89,5-7.43,1.89s-1.83-17.29-1.94-18.68C446.89,351.07,442.32,329,442.22,328.55Z" style="fill:#ffbda7"></path><path d="M447.27,378.1c.13,3.24.6,5.4,1.72,7.32a4.75,4.75,0,0,0,5.47,2c2.21-.52,5-2,5.72-4.74a17.84,17.84,0,0,0,.14-7.71Z" style="fill:#263238"></path><path d="M457,355.82c.76.26,1.17,4.45,1.62,8.81.48,4.68,1.28,6.1,1.71,9.93.49,4.38.16,5.84-1.41,8.46s-7.05,5.11-9.65,1.28c-2.13-3.12-2.09-6.05-1.82-10.41a88.71,88.71,0,0,0,.15-10.4c-.12-3.28-1.13-6.29-.34-6.64,0,.48.74,4.08,1.36,3.69.27-.05.33-.51.28-1.36a1.43,1.43,0,0,1,.27-1.05,1.69,1.69,0,0,1,1-.43c.89-.16,2.12-.41,3-.48.52,0,.23-.05.76-.07a4.63,4.63,0,0,1,2,.09c.28.16.3.43.36.74s.13.74.22,1c0,.12.2.38.33.37s.28-.57.26-.82,0-.64,0-.94S457,356.59,457,355.82Z" style="fill:#37474f"></path><path d="M460.13,373.06c.08.64.45,4.58-.7,5.31s-1.87-2.5-1.87-2.5-2.87-.93-7.1.83c.2.68-.48,2.91-1.63,2.42s-1.43-4.8-1.44-4.86c-.24,4.18-.23,7,1.84,10,2.6,3.83,8.07,1.33,9.65-1.28s1.9-4.08,1.41-8.46C460.24,374.12,460.2,373.46,460.13,373.06Z" style="fill:#455a64"></path><path d="M457.23,376.15c0,1.58,1.41,1.06,1.66-1.16.39-3.32-.39-6.52-.31-10.36-.45-4.36-.72-8.73-1.62-8.81,0,.75.07,2.37.07,2.37,0,.32,0,1.14,0,1.14.22,3.26,1,7.08.82,10.44C457.73,372.72,457.24,374.57,457.23,376.15Z" style="fill:#263238"></path><path d="M451,376.67c-.27-1.56-.77-2-1-5s-1.17-8.11-1.73-11.3c-.15-1-1-3.52-1-3.56-.57.27-.69,2-.28,3.95s.69,3.19.94,5.09c.71,3.77.76,7.76,1.23,9.95S451.22,378.23,451,376.67Z" style="fill:#263238"></path><path d="M450.59,376.74l.12,0a10.69,10.69,0,0,1,7-.61.33.33,0,0,0,.41-.23.32.32,0,0,0-.23-.41,11.11,11.11,0,0,0-7.46.65.34.34,0,0,0-.15.45A.35.35,0,0,0,450.59,376.74Z" style="fill:#f0f0f0"></path><path d="M449.73,373.59l.11,0a14.08,14.08,0,0,1,8.15-.78.34.34,0,0,0,.16-.66,14.61,14.61,0,0,0-8.59.83.32.32,0,0,0-.16.44A.34.34,0,0,0,449.73,373.59Z" style="fill:#f0f0f0"></path><path d="M458.49,370.22a.34.34,0,0,0,.09-.65c-4-1.45-9.39.36-9.56.45a.32.32,0,0,0-.15.45.34.34,0,0,0,.45.14s5.28-1.76,9-.41A.36.36,0,0,0,458.49,370.22Z" style="fill:#f0f0f0"></path><path d="M457.89,367.38a.32.32,0,0,0,.28-.22.33.33,0,0,0-.19-.43c-4.43-1.68-9.06.69-9.22.78a.34.34,0,0,0-.12.46.34.34,0,0,0,.46.12s4.52-2.29,8.64-.73Z" style="fill:#f0f0f0"></path><path d="M457.67,363.92a.34.34,0,0,0,.1-.65c-4.15-1.63-9.1.78-9.28.88a.34.34,0,0,0,.33.59s4.85-2.36,8.7-.84A.39.39,0,0,0,457.67,363.92Z" style="fill:#ebebeb"></path><path d="M450.2,232.1c2.53,6.41,5.35,10.93,5.29,22.82-.13,25.3-1.05,43.53-1.05,43.53.09,2.24,1.11,5.54,2.22,17.07.92,9.67,1.53,38.36,1.53,38.36a18.15,18.15,0,0,1-12.43.92c-1.4-9.61-7-44.2-9.17-55.29-2-10.06-3.81-24.77-3.81-24.77l-4.63,24.61s.36,9.94-.17,15.77c-.63,6.78-4.74,34.67-4.74,34.67s-6.68,2.4-12.81-.67c0,0,.07-43.87.3-52.05.45-16.05.81-49.89,4.19-66.58Z" style="fill:#37474f"></path><path d="M458.19,349.91c-2.49,1.44-10,2.32-13.23,1l.8,3.92s1.46,1.11,6,1,6.41-1.93,6.41-1.93Z" style="fill:#455a64"></path><path d="M424,346c-2.65,1.11-10.79.87-13.85-.89l.29,4s2,1.53,6.54,1.77,6.27-1.1,6.27-1.1Z" style="fill:#455a64"></path><path d="M432.78,274.74l-2.13-17.94s-9.27-.25-13-4.11c0,0,1.13,5.09,10.49,7.06l2.52,14.9-2.46,24.49Z" style="fill:#263238"></path></g><g id="freepik--Top--inject-440"><path d="M423,185.86c-3.6-.38-10.45,1.26-20.45,3.82-7.49,1.92-14.51,3.47-14.51,3.47s-3.75-10.23-4.56-12.91c-.92-3-1.94-2.11-1.94-2.11l-10.05,3.18s-1.68.38-.37,4.4c2,6.06,3.92,12.16,6.11,16.74,2,4.25,3.94,5.23,7,4.92,7.22-.75,30.73-4.1,30.73-4.1Z" style="fill:#ebebeb"></path><path d="M388.07,193.15s1.24,2.23,1.27,6.77a10.52,10.52,0,0,0,.05-7.07Z" style="fill:#e0e0e0"></path><path d="M380.3,175.65s-.52-2.78-.84-4.12-.63-4-1.76-4.88a8.16,8.16,0,0,1-1.38-1.27l-11.06,6.39s-.06.23.81.9,3.43,2.56,4,3,1,2.69,1,2.69,1.46,1.38,4.62,1.11S380.3,175.65,380.3,175.65Z" style="fill:#ffbda7"></path><path d="M371.5,181.7a31.55,31.55,0,0,0,6-.83,7.16,7.16,0,0,0,4.07-2.74l-1-3.22a13.46,13.46,0,0,1-9.77,3.28Z" style="fill:#37474f"></path><path d="M377.26,163.08a.55.55,0,0,1-.54-.47l-3.26-22.36,1-.61,3.32,22.82a.54.54,0,0,1-.46.62Z" style="fill:#37474f"></path><path d="M378.64,163.36a3.18,3.18,0,0,0-1.44-2.5,1,1,0,0,0-1-.1h0l-13.29,7.68,2,3.53,13.31-7.68h0A1,1,0,0,0,378.64,163.36Z" style="fill:#455a64"></path><path d="M363.9,168.55a3.16,3.16,0,0,1,1.43,2.49c0,.92-.64,1.29-1.43.83a3.18,3.18,0,0,1-1.44-2.49C362.46,168.46,363.1,168.09,363.9,168.55Z" style="fill:#37474f"></path><path d="M363.9,169.24a1.86,1.86,0,0,1,.83,1.45c0,.53-.37.75-.83.48a1.81,1.81,0,0,1-.84-1.45C363.06,169.19,363.43,169,363.9,169.24Z" style="fill:#BA68C8"></path><path d="M379.86,173.36a20,20,0,0,1-.29-6.18,5.08,5.08,0,0,0-1.41-4.35c-1.19-1.22-1.15-3.12-2.09-2.73s-1.12,1.3-.79,3.19S379.86,173.36,379.86,173.36Z" style="fill:#ffbda7"></path><path d="M371.32,171.77c1.85-.28,4.69-1.75,5.46-2.91s.88-3.76,0-5.85l-1.39.71c.14.46.39,1.09.69,1.8l-10.82,6.25s-.06.23.81.9l.13.09,3.1-1.83S369.47,172.05,371.32,171.77Z" style="fill:#f0997a"></path><path d="M365.26,167.07a3.09,3.09,0,0,1,3.11.55c.55.62.67,2.83,2.18,3.08s5.73-1.49,6.19-3.09a12.88,12.88,0,0,0,0-5.07c-.15-.91-2.79-3.19-4-3.57s-7.23,2.57-8.45,4.2c-.94,1.24-.9,5-.9,5Z" style="fill:#ffbda7"></path><path d="M363.9,170.74h-.11a.55.55,0,0,1-.43-.64l5.07-26.94,1.24-.72-5.24,27.86A.54.54,0,0,1,363.9,170.74Z" style="fill:#37474f"></path><g id="freepik--Chest--inject-440"><path d="M425,185.48l-3.72,2.27a74.51,74.51,0,0,0-7.26,7.94c-1.91,2.47-4.06,10.54-1.34,17.23l-.58,26.32s2.21,4.44,13.22,5.86a37.15,37.15,0,0,0,19.25-2.57A20,20,0,0,0,456,247.84a48.91,48.91,0,0,0-1.76-10.73c-1.64-6.56-2.53-9.33-2.72-12.72S452.85,208,452.85,208c2.63-14.43-1.34-20.19-7.48-21.36Z" style="fill:#f0f0f0"></path></g><path d="M415.09,248.08v3s-1.08-.12-4.66-3.06l-.08-3.65Z" style="fill:#263238"></path><path d="M410.61,207.65c.33-7.76,2.16-13.32,5.05-17s5.27-4.71,12-5.78l0,.79a10,10,0,0,0-4.65,2.21c-1.67,1.53-4,4.76-5.42,10.3-2,7.55-2.33,24.4-2.44,33.48s0,16.39,0,16.39-3.32-1.44-4.74-3.74c-1.28-3.41.09-4.15.07-6.34C410.33,227.74,410.37,213.34,410.61,207.65Z" style="fill:#BA68C8"></path><path d="M455.74,243a40.15,40.15,0,0,1,.46,5.3c-.15.85-3.36,1.55-7.31,2.37s-11.23,1.8-14.37.7l-.38-3.57Z" style="fill:#263238"></path><path d="M436.27,196.38c1-4.14,3.64-7,3.72-11l12.15,1.55c3.15,1.45,3.53,6.16,3.22,9.62l-2.76,27s1.26,7.36,2.37,11.77c.59,2.35,2.19,6.16.77,7.65-5.21,5.64-21.6,4.8-21.6,4.8s-.23-8.68.24-29.62C434.65,206.44,435,201.65,436.27,196.38Z" style="fill:#BA68C8"></path><path d="M436.12,253.51c.09-.28.36-.32.62-.35.56-.07,1.12-.13,1.67-.22a19.27,19.27,0,0,0,2.57-.73,29.75,29.75,0,0,1,3.53-.69,15.76,15.76,0,0,0,1.66-.48,5.09,5.09,0,0,0,2.3-1.41,13.12,13.12,0,0,0,1.55-2,14.81,14.81,0,0,0,.93-1.7l7.36,6.56c-.41.57-.79,1.08-1.12,1.52-2.77,3.59-3.68,7.32-7.56,10.09a11.33,11.33,0,0,1-6.29-4.31,10.3,10.3,0,0,1-1.23-2.67c.3-.31.78-1-.15-1.16-.24,0-.62-.06-.81-.07-.62,0-1.24,0-1.86-.07a4.12,4.12,0,0,1-2.28-.65C436.51,254.77,435.89,254.22,436.12,253.51Z" style="fill:#ffbda7"></path><path d="M452.14,186.93c5.76.8,6.56,2.42,10.16,10.14,2.14,4.58,6.75,18.63,8.39,23.45s1.82,6.51.69,9.62c-1.59,4.38-4.94,12.41-6.17,15a8.58,8.58,0,0,1-4,3.72,16.43,16.43,0,0,0-9.58-5.84s-.27-1.86,1.74-5.75A90.56,90.56,0,0,0,458,224.87l-6.78-14.81S443.75,191,452.14,186.93Z" style="fill:#ebebeb"></path><path d="M458,224.87c1.2-1.25,7.37-1.8,9.45-.9,0,0-2.31-3.07-10.29-.94Z" style="fill:#e0e0e0"></path><path d="M461.21,248.84l-3,4.39a12,12,0,0,0-8.89-5.45l2.34-4.78C456.13,243.48,459.7,245.69,461.21,248.84Z" style="fill:#37474f"></path><g id="freepik--Head--inject-440"><path d="M440.29,180.48c1.23-1.39,2-4.17,4.91-7.32,4-4.37,6.52-11.65,1.68-17.77s-14-6.69-20.2-5.44c-8.33,1.68-8.81,11.57-8.81,11.57Z" style="fill:#37474f"></path><path d="M440.85,167.62c-2.55-9.37-8.94-12.63-16-12.38-3.49.12-7.45.77-7.49,11.7,0,8.53,2.91,12.6,4.34,13.41s3.21,1.07,6.06.91l-.22,4.84s-3.9,3-2.11,7.49a28.74,28.74,0,0,0,8-1.92c5.75-2.53,6.42-5.06,6.42-5.06l.75-12.91S441.37,169.53,440.85,167.62Z" style="fill:#ffbda7"></path><path d="M424.86,181.24h0l.37,0C425.1,181.26,425,181.26,424.86,181.24Z" style="fill:#ffbda7"></path><path d="M429.54,165.17a1.3,1.3,0,0,0,1.07,1.45,1.22,1.22,0,0,0,1.43-1,1.3,1.3,0,0,0-1.08-1.45A1.21,1.21,0,0,0,429.54,165.17Z" style="fill:#263238"></path><path d="M419.24,162.28l2.75-1.21a1.44,1.44,0,0,0-1.93-.81A1.59,1.59,0,0,0,419.24,162.28Z" style="fill:#263238"></path><path d="M430.5,161.66l2.59,1.51a1.44,1.44,0,0,0-.48-2A1.57,1.57,0,0,0,430.5,161.66Z" style="fill:#263238"></path><path d="M429.65,173.26l-4.24,1.22a2.22,2.22,0,0,0,2.93,1.44A2.08,2.08,0,0,0,429.65,173.26Z" style="fill:#b16668"></path><path d="M427.13,176a2.32,2.32,0,0,1,2.39-2l.21,0a2,2,0,0,1-1.39,1.86A2.41,2.41,0,0,1,427.13,176Z" style="fill:#f28f8f"></path><path d="M419.94,164.45A1.32,1.32,0,0,0,421,165.9a1.22,1.22,0,0,0,1.43-1,1.29,1.29,0,0,0-1.07-1.45A1.22,1.22,0,0,0,419.94,164.45Z" style="fill:#263238"></path><polygon points="425.99 163.71 425.54 171.53 421.25 170.24 425.99 163.71" style="fill:#f0997a"></polygon></g><path d="M422.55,221.89c.26-.15.12-.55,0-.77a7.47,7.47,0,0,1-.39-.92,4.13,4.13,0,0,1-.15-1.78c0-.26.24-.63,0-.86a.32.32,0,0,0-.37-.12c-.15.07-.18.26-.21.4a4.48,4.48,0,0,0,0,1.86,3.94,3.94,0,0,0,.38,1l.28.47a4.31,4.31,0,0,1,.22.6.12.12,0,0,0,.16.08Z" style="fill:#455a64"></path><path d="M421,221.73c-.06-.59-.2-1.15-.29-1.73a3,3,0,0,1,0-1.52c0-.12.14-.24.17-.36a.48.48,0,0,0-.1-.35.22.22,0,0,0-.3,0,.56.56,0,0,0-.23.31,2.81,2.81,0,0,0-.14,1.52,11.07,11.07,0,0,0,.59,2.19c.07.18.28.16.26,0Z" style="fill:#455a64"></path><path d="M419.31,221.46a9,9,0,0,1-.26-2.06,5.37,5.37,0,0,1,.14-1c0-.16.09-.31.14-.46a.5.5,0,0,0,0-.5c0-.06-.16-.15-.24-.11s-.25.26-.31.46-.1.39-.14.58a5.62,5.62,0,0,0-.08,1,4.35,4.35,0,0,0,.54,2.18c.1.15.28.07.24-.1Z" style="fill:#455a64"></path><path d="M418.06,221.1a5.69,5.69,0,0,1-.21-1.88,7.08,7.08,0,0,1,.16-.9,1.63,1.63,0,0,0,.09-.9c0-.09-.19-.24-.3-.16s-.29.65-.36,1a8,8,0,0,0-.12,1,2.86,2.86,0,0,0,.55,2,.11.11,0,0,0,.19-.1Z" style="fill:#455a64"></path><path d="M416.85,221.54c0-.45-.21-.89-.29-1.34a4.65,4.65,0,0,1-.08-1.24,3.31,3.31,0,0,1,.27-1.06c.14-.3.41-.58.44-.91,0-.1-.07-.25-.19-.22-.36.08-.59.49-.74.81a3.66,3.66,0,0,0-.29,1.17,4.78,4.78,0,0,0,.7,2.88c.07.12.19,0,.18-.09Z" style="fill:#455a64"></path><path d="M415.39,220.93a8.82,8.82,0,0,1-.42-2.39,5.86,5.86,0,0,1,.15-1.17c0-.17.1-.34.15-.51a.82.82,0,0,0,.08-.55c0-.12-.19-.31-.33-.21a1.81,1.81,0,0,0-.5,1.13,5.26,5.26,0,0,0-.12,1.37,4.4,4.4,0,0,0,.75,2.42c.09.13.28.09.24-.09Z" style="fill:#455a64"></path><path d="M413.79,219.91c0-.4-.05-.81-.05-1.21a8.05,8.05,0,0,1,.07-1.2,6.43,6.43,0,0,1,.28-1.15,2.47,2.47,0,0,0,.28-1.07c0-.1-.11-.3-.24-.23a1.89,1.89,0,0,0-.67,1.08,6.21,6.21,0,0,0-.26,1.21,4.41,4.41,0,0,0,.35,2.63c.07.14.23.09.24-.06Z" style="fill:#455a64"></path><path d="M423,185.86c-2.94,1-6.09,6.28-7.9,12.46s-2.55,17.81-2.55,17.81,2.55,3.18,10.45,2.9c0,0-3.27-17.8,0-26.89Z" style="fill:#BA68C8"></path><path d="M423,185.86c-2.94,1-6.09,6.28-7.9,12.46s-2.55,17.81-2.55,17.81,2.55,3.18,10.45,2.9c0,0-3.27-17.8,0-26.89Z" style="opacity:0.25"></path><path d="M421.6,204.91a6.77,6.77,0,0,1-1.67-2.9c-1.81-6.08,1.84-15.46,3.1-16.15v6.28C421.78,195.62,421.49,200.37,421.6,204.91Z" style="opacity:0.1"></path><path d="M447.12,176c-.19,1.45.34,6.43,1,7.4s1.7,1.44,1.86,3.22l-2.76-.35A37.32,37.32,0,0,1,436,200.92c-8.44,6.79-13.88,4.82-14.77,1.55-1.26-4.6,1-14.41,1.84-16.61s1.83-2.53,1.83-2.53Z" style="fill:#BA68C8"></path><path d="M447.12,176c-.19,1.45.34,6.43,1,7.4s1.7,1.44,1.86,3.22l-2.76-.35A37.32,37.32,0,0,1,436,200.92c-8.44,6.79-13.88,4.82-14.77,1.55-1.26-4.6,1-14.41,1.84-16.61s1.83-2.53,1.83-2.53Z" style="opacity:0.25"></path><path d="M447.09,176a16.24,16.24,0,0,1-2.87,9.76c-3.28,4.54-9.87,6.61-15.22,5.46s-6.31-3.62-4.08-5.78S447.09,176,447.09,176Z" style="opacity:0.1"></path><path d="M424.66,187.57a2.14,2.14,0,0,0,.91,1.13c.87.65,2.56,1.37,5.81,1.59a15.81,15.81,0,0,0,5.93-.75h0c5.15-1.69,10.15-6.44,9.94-17h0a7.05,7.05,0,0,1-1.74,1.75c-3.07,2.15-4.84-.6-4.84-.6-.89,2.47-1.34,3.85-3.72,5.45-3,2-9.14,2.11-9.14,2.11-.27,0-.53,0-.8,0a15,15,0,0,1-1.78,0c-.13,0-.25,0-.37,0h0Z" style="fill:#BA68C8"></path><path d="M424.66,187.57a2.14,2.14,0,0,0,.91,1.13c.87.65,2.56,1.37,5.81,1.59a15.81,15.81,0,0,0,5.93-.75h0c5.15-1.69,10.15-6.44,9.94-17h0a7.05,7.05,0,0,1-1.74,1.75c-3.07,2.15-4.84-.6-4.84-.6-.89,2.47-1.34,3.85-3.72,5.45-3,2-9.14,2.11-9.14,2.11-.27,0-.53,0-.8,0a15,15,0,0,1-1.78,0c-.13,0-.25,0-.37,0h0Z" style="opacity:0.2"></path><path d="M440.85,167.62s0-9.2-4.37-13.09-13.16-3.59-15.29-1.44-4.85,10.29-3.13,20.36c0,0-1.85-4.35-1-13.93s8.42-15.15,16.58-14.66,13.25,3.55,16.7,10.37S455,187.54,455,187.54a19.1,19.1,0,0,0-2.89-.61c-8.68.39-11.71-5.56-11.47-13.58Z" style="fill:#BA68C8"></path><path d="M440.85,167.62s0-9.2-4.37-13.09-13.16-3.59-15.29-1.44-4.85,10.29-3.13,20.36c0,0-1.85-4.35-1-13.93s8.42-15.15,16.58-14.66,13.25,3.55,16.7,10.37S455,187.54,455,187.54a19.1,19.1,0,0,0-2.89-.61c-8.68.39-11.71-5.56-11.47-13.58Z" style="opacity:0.25"></path></g></g></g><g id="freepik--character-2--inject-440"><g id="freepik--character--inject-440"><path d="M331.49,310c-3.14-.64-6,1.71-6.35,2.51-.43,1.07-.46,3.3.65,6.14a19.08,19.08,0,0,1,.81,8.72c-.41,2.5-2,8.68.29,12s7.75,6.44,10,2.27c.75-1.36-.23-6.34-.57-9.94-.68-7.18-1.1-14.3-1.1-14.3Z" style="fill:#263238"></path><path d="M326.28,311.33c-.31,2.33.73,8,3.54,13.45s6.72,12.29,7.34,16c.2-1.67-.29-4.79-.63-7.56l0-.18-.06-.48a1.5,1.5,0,0,1,0-.22c0-.2-.05-.4-.07-.6v0c-.21-2.25-.4-4.48-.56-6.5-.12-1.61-.23-3.08-.31-4.3-.05-.61-.08-1.16-.11-1.63,0-.24,0-.45-.05-.65-.05-.78-.07-1.22-.07-1.22l-3.77-7.4c-.21,0-.41-.06-.61-.08A6.93,6.93,0,0,0,326.28,311.33Z" style="opacity:0.15"></path><path d="M330.11,315.6a68.44,68.44,0,0,1,.09,10.48c-.32,3.8.32,6.36,1.51,8.15,1.33,2,4.88,3.27,4.72-.68-.11-2.75-1.17-16.15-1.17-16.15Z" style="fill:#b16668"></path><path d="M335.5,336c.59-.3,1-1,.93-2.4,0-.62-.1-1.79-.2-3.22-.16-1.78-.3-3.53-.43-5.13s-.23-3.08-.31-4.3c-.05-.61-.08-1.16-.11-1.63,0-.24,0-.45-.05-.65-.05-.76-.07-1.2-.07-1.22h0l-5.15-1.8a70.66,70.66,0,0,1,.13,10C332,328.89,334.05,332.7,335.5,336Z" style="fill:#9a4a4d"></path><polygon points="349.67 305.25 341.2 318.93 332.83 309.31 339.33 293 349.67 305.25" style="fill:#b16668"></polygon><path d="M347,266.79a232,232,0,0,0-19.76-12.28l-11.36,12.87,10.56,10,16,9.89a21.38,21.38,0,0,0-4.13,6.42,31.16,31.16,0,0,0-1.24,3.49c3.75,5.33,4.68,12.95,8.52,14.68,0,0,7.31-11.27,12.43-20.22,4.82-8.42,3.32-12.31,2.49-13.49C358.3,275,356.75,273.72,347,266.79Z" style="fill:#b16668"></path><path d="M344.64,313.37c-.11-2.8-.26-6-.42-9h0l0-.6c0-.14,0-.27,0-.4-.07-1.21-.14-2.36-.21-3.42v-.1c0-.52-.07-1-.11-1.49v0h0c-.09-1.2-.17-2.22-.26-2.93a17.79,17.79,0,0,0-2.35-6.79h0L341,289l0,0-.27.39-.06.07-.27.41-.06.08-.28.45a.56.56,0,0,0-.05.08c-.1.16-.2.32-.29.49l-.05.07-.3.54,0,.06c-.1.19-.21.39-.31.6h0l-.33.68,1.74,8.12h0l3,14.26Z" style="fill:#9a4a4d"></path><path d="M338.75,285c-.85-1.11-1.76-2.17-2.65-3.19-3.39-3.82-10.82-11.72-10.82-11.72l-2.09.2,6.41,9.06Z" style="fill:#9a4a4d"></path><path d="M337.57,345.72c-.77-.11-.91,1.21-1.48,2.85a8.46,8.46,0,0,0-.58,5c.49,2.16,3.8,2.81,5.26,5.74s3.48,8.11,9.29,10.19,10.62.72,12-.91.58-3.45-2.94-6.15c-3.75-2.86-4.8-3.7-4.8-3.7Z" style="fill:#263238"></path><path d="M357.13,361.27c-.47-.64-1.81-2.15-2.38-2.94a48.54,48.54,0,0,1-6.2-11.41c-.78-2.1-1.69-7.67-2.5-13.53h0s-3.65-35.35-5-40.71-19.39-23.93-19.39-23.93,3.45-8.38,5.53-14.24l-34.65.21c-1.71,5.91-2.93,7.94-1.46,14.25s8,12,16,17.64c6.62,4.69,15.53,11.18,17.39,12.52,1.63,1.18,2.58,2.55,2.47,6.42s0,10.16,5.78,23.31c2,5.15,4.27,11.34,4.82,14.17a9.3,9.3,0,0,1-.08,3.59,3.84,3.84,0,0,0,.73,2.56,28.59,28.59,0,0,0,1.78,2.36c1.68,2,4.07,7.24,7,9.84s8.46,2.8,9.88,1.66A1.16,1.16,0,0,0,357.13,361.27Z" style="fill:#b16668"></path><path d="M328.59,264.79a10.58,10.58,0,0,1-5.4,5.45l1,1.11A8.59,8.59,0,0,0,328.59,264.79Z" style="fill:#9a4a4d"></path><path d="M300.72,204.29c2.89,2.75,11.54-5.8,14.07-8.64.7-.79,1.09-2,1.73-2.89a16.4,16.4,0,0,1,1.65-2,7.79,7.79,0,0,1,2.12-1.11,8.36,8.36,0,0,1,2.31-.81,2.86,2.86,0,0,0,2.22-2.5,2.29,2.29,0,0,0,1.48,2.32,1.93,1.93,0,0,0,2.39-1.19,1.31,1.31,0,0,1-1.83-1.16c0-.85.85-1.4,1.41-2a3.72,3.72,0,0,0-2-6.08,4.87,4.87,0,0,0,.78-4.05,5.07,5.07,0,0,0-2.39-3,4.82,4.82,0,0,0-1.84-.68c-.27,0-1.91-.21-2,.11a4.44,4.44,0,0,0-2.12-5.22,7.35,7.35,0,0,0-6-.25,22.06,22.06,0,0,0-5.22,3l-.09.06c-4.19,2.93-9.06,4-12.77,7.72a15.71,15.71,0,0,0-4.63,13C290.61,196.61,297.46,201.18,300.72,204.29Z" style="fill:#263238"></path><path d="M316.79,208.78c9.64.57,11.88,8.28,15.75,13.84,4.64,6.66,13.57,19.19,13.57,19.19l-7.74,5.93-18.58-22.19Z" style="fill:#b16668"></path><path d="M327.23,254.51c-.4-2.3-1.93-4.87-2.13-7.37s.52-7.52.83-11.91a14.26,14.26,0,0,0,1.58-13.43c-1.49-4-10.72-13-10.72-13l-4.78.3a41.91,41.91,0,0,0-10.79,1.77l-6.44,1.42c1.64,5.54,1.77,7.74,1.38,10.9s-3.94,9.18-3.94,9.18l1.58,5.72h0s1.86,5.22,2.34,7.11c.33,1.29-.94,3.51-1.54,4.54a30.36,30.36,0,0,0-3.31,8.07c-1.64,5.67-1.92,12.87,2.58,18.58s28,20.86,28,20.86.41-6.59,6.89-13.15,19.57-12.85,25.94-11.69c0,0-7-5.45-13.44-9.78A139.74,139.74,0,0,0,327.23,254.51Z" style="fill:#37474f"></path><path d="M317.27,235.2s-2.92,3.65-9.2,2.6-7.52-5.79-7.52-5.79-.37,6.1,7.14,7.32S317.27,235.2,317.27,235.2Z" style="opacity:0.1"></path><path d="M318,176.35c2,1.09,4.65,6,4.82,16.38.14,8.83-2.64,11.12-4.05,11.8s-4.2.41-6.91.07l.21,5.29s3.89,4.18,3.75,6.62-5.25,3.21-8.83,1a22.56,22.56,0,0,1-5.95-5.76L300.48,198s-1.41,1.62-4.09-.06a4.82,4.82,0,0,1-1.5-6.94,3.56,3.56,0,0,1,5.42.44s3.61-.46,9.2-3.82A18.48,18.48,0,0,0,318,176.35Z" style="fill:#b16668"></path><path d="M321.49,185.71l-2.6-.83a1.31,1.31,0,0,1,1.67-.91A1.42,1.42,0,0,1,321.49,185.71Z" style="fill:#263238"></path><path d="M325.55,185.71H325a17,17,0,0,0-5.65,1c-1.8.79-2.43,1.5-3.42,1.64s-1.75-.38-3.69-.67a18.92,18.92,0,0,0-6,.65l-.6.15a1.11,1.11,0,0,0-.66,1.1,1.91,1.91,0,0,0,.59,1.09,1.26,1.26,0,0,1,.21.45,17.68,17.68,0,0,0,.78,3.13,3.35,3.35,0,0,0,.78,1.05,2.7,2.7,0,0,0,.4.29,1.27,1.27,0,0,0,.23.12,3.1,3.1,0,0,0,.69.24l.11,0,.18,0,.19,0a5.9,5.9,0,0,0,.6,0H310l.32,0a4.78,4.78,0,0,0,4.1-3c.6-1.31.42-3,1.56-3.17h.21c.85.08.77,1.69,1.31,2.76a4.17,4.17,0,0,0,.83,1.14l.2.16.1.08.11.07.1.06.11.06.08,0,.06,0a3.59,3.59,0,0,0,1,.27h.1a5.07,5.07,0,0,0,1.21,0,4.08,4.08,0,0,0,3.47-2.72,22.44,22.44,0,0,0,.67-3.34,1,1,0,0,1,.2-.45,2.46,2.46,0,0,0,.51-1.27C326.21,186.13,325.87,185.71,325.55,185.71Zm-11.84,6.21a4.21,4.21,0,0,1-.84,1.82h0a3.94,3.94,0,0,1-2.69,1.35,2.69,2.69,0,0,1-2.61-.89l-.09-.11a1,1,0,0,0-.08-.11l-.06-.11-.06-.1a.25.25,0,0,0,0-.07l0-.07-.06-.12h0c0-.11-.09-.23-.13-.34h0c0-.07,0-.14-.07-.2a2.9,2.9,0,0,1-.09-.34l0-.06v-.06c-.2-.83-.45-2.48,0-2.92a5.27,5.27,0,0,1,3.39-1.06h.2a7.86,7.86,0,0,1,.84,0l.33,0a6.81,6.81,0,0,1,.83.15l.25.07a1.69,1.69,0,0,1,.27.1l.06,0,.1,0a1.51,1.51,0,0,1,.56.37A3.86,3.86,0,0,1,313.71,191.92Zm10.77-1.85a4.34,4.34,0,0,1-1.71,3,3.69,3.69,0,0,1-1.37.49,2.69,2.69,0,0,1-2.78-.91h0l-.05-.07-.06-.09,0,0-.08-.13-.07-.14,0-.08s0,0,0,0l0-.06,0,0a3.67,3.67,0,0,1-.18-.61,4.14,4.14,0,0,1,0-2.6,5.94,5.94,0,0,1,3-1.68c.31-.08.59-.14.85-.18h.1l.11,0,.29,0h.48l.43,0h.19l.11,0,.12,0,.2.06h0a1.52,1.52,0,0,1,.46.22C324.85,187.48,324.65,189.19,324.48,190.07Z" style="fill:#37474f"></path><path d="M298.76,203.27a3.29,3.29,0,0,1-2.59-5.48,7.45,7.45,0,0,0,1,.55,2.2,2.2,0,0,0-.72,1.73,2.21,2.21,0,1,0,2.13-2.3.54.54,0,0,1-.56-.52.55.55,0,0,1,.51-.56,3.29,3.29,0,1,1,.26,6.58Z" style="fill:#BA68C8"></path><g style="opacity:0.30000000000000004"><path d="M298.76,203.27a3.29,3.29,0,0,1-2.59-5.48,7.45,7.45,0,0,0,1,.55,2.2,2.2,0,0,0-.72,1.73,2.21,2.21,0,1,0,2.13-2.3.54.54,0,0,1-.56-.52.55.55,0,0,1,.51-.56,3.29,3.29,0,1,1,.26,6.58Z"></path></g><path d="M300.44,194.59h0l-.18-4.64,3-.12.06,1.68A3,3,0,0,1,300.44,194.59Z" style="fill:#263238"></path><path d="M312.31,191.3a1.19,1.19,0,1,1-1.3-1.12A1.2,1.2,0,0,1,312.31,191.3Z" style="fill:#263238"></path><path d="M321.18,190.2a1.19,1.19,0,1,1-2.37.21,1.2,1.2,0,0,1,1.07-1.33A1.22,1.22,0,0,1,321.18,190.2Z" style="fill:#263238"></path><path d="M313.25,198.18l2.62.72a1.34,1.34,0,0,1-1.65,1A1.42,1.42,0,0,1,313.25,198.18Z" style="fill:#9a4a4d"></path><polygon points="315.66 189.89 315.65 195.94 319.12 194.71 315.66 189.89" style="fill:#9a4a4d"></polygon><path d="M311.83,204.6c-2.85-.26-8.75-1.71-9.75-4a6,6,0,0,0,2.16,2.86c1.8,1.43,7.66,2.89,7.66,2.89Z" style="fill:#9a4a4d"></path><path d="M343,232.3a2.75,2.75,0,0,1,1.29-2.22c1.41-1.13,3.27-2.06,3.78-4.75l2.05,1.07L347,232.19Z" style="fill:#BA68C8"></path><path d="M343,232.3a2.75,2.75,0,0,1,1.29-2.22c1.41-1.13,3.27-2.06,3.78-4.75l2.05,1.07L347,232.19Z" style="fill:#fff;opacity:0.75"></path><path d="M343,232.3s-2.23-1-7,.17-8.61,2.6-17.81,2.76l2.44,1.28,23.81-2.31Z" style="fill:#BA68C8"></path><path d="M343,232.3s-2.23-1-7,.17-8.61,2.6-17.81,2.76l2.44,1.28,23.81-2.31Z" style="fill:#fff;opacity:0.75"></path><polygon points="318.26 235.23 310.81 263.01 313.24 264.3 320.7 236.51 318.26 235.23" style="fill:#BA68C8"></polygon><polygon points="318.26 235.23 310.81 263.01 313.24 264.3 320.7 236.51 318.26 235.23" style="fill:#fff;opacity:0.8"></polygon><polygon points="318.26 235.23 310.81 263.01 313.24 264.3 320.7 236.51 318.26 235.23" style="opacity:0.1"></polygon><g style="opacity:0.1"><path d="M348.17,226.8a4.82,4.82,0,0,1-.93,1.59,13.4,13.4,0,0,1-1.32,1.29,9.69,9.69,0,0,0-1.29,1.27,3.62,3.62,0,0,0-.45.76,1.89,1.89,0,0,0-.14.82l-.28.05a1.86,1.86,0,0,1,.19-1,3.2,3.2,0,0,1,.51-.8,9.49,9.49,0,0,1,1.37-1.25,15.77,15.77,0,0,0,1.36-1.22A4.76,4.76,0,0,0,348.17,226.8Z"></path><path d="M347.84,228.37a4.64,4.64,0,0,1-.69,1c-.27.3-.54.59-.79.89a5.75,5.75,0,0,0-.69,1,2.51,2.51,0,0,0-.33,1.08l-.29,0a2.63,2.63,0,0,1,.43-1.16,6.43,6.43,0,0,1,.77-.94c.27-.29.56-.56.84-.84A4.65,4.65,0,0,0,347.84,228.37Z"></path><path d="M327.46,235.07a34.21,34.21,0,0,0,3.87-.72c1.28-.31,2.53-.68,3.8-1a18.39,18.39,0,0,1,3.9-.66,14.54,14.54,0,0,1,2,0,8.62,8.62,0,0,1,1,.15,2.46,2.46,0,0,1,.95.43l-.2.22a2.14,2.14,0,0,0-.82-.38,6.08,6.08,0,0,0-.95-.16,14.11,14.11,0,0,0-1.95,0,17.42,17.42,0,0,0-3.87.59c-1.27.32-2.54.67-3.82.95A34.31,34.31,0,0,1,327.46,235.07Z"></path><path d="M333.76,234.71c.74-.13,1.46-.31,2.19-.48s1.46-.33,2.2-.46a15.19,15.19,0,0,1,2.24-.24,6.21,6.21,0,0,1,2.25.33l-.1.27a6.2,6.2,0,0,0-2.15-.38,15.07,15.07,0,0,0-2.22.16c-.74.11-1.47.25-2.2.39S334.5,234.6,333.76,234.71Z"></path></g><polygon points="350.11 225.03 346.44 231.89 338.43 261.68 339.65 262.32 343.26 253.95 351.32 225.67 350.11 225.03" style="fill:#BA68C8"></polygon><polygon points="347.65 232.53 351.32 225.67 343.26 253.95 339.65 262.32 347.65 232.53" style="opacity:0.2"></polygon><polygon points="342.6 234.31 319.13 236.73 311.13 266.52 312.35 267.17 335.82 264.74 343.82 234.95 342.6 234.31" style="fill:#BA68C8"></polygon><polygon points="320.35 237.38 312.35 267.17 335.82 264.74 343.82 234.95 320.35 237.38" style="opacity:0.2"></polygon><polygon points="319.13 236.73 320.35 237.38 312.35 267.17 311.13 266.52 319.13 236.73" style="opacity:0.35000000000000003"></polygon><path d="M343.82,235l3.83-2.42-8,29.79c-.55,1.62-1.86,2.38-3.83,2.42Z" style="fill:#BA68C8"></path><path d="M343.82,235l3.83-2.42-8,29.79c-.62,1.71-2,2.4-3.83,2.42Z" style="opacity:0.35000000000000003"></path><path d="M346.3,231.82a3.76,3.76,0,0,0-3.26.48c-1.06.67-1.32,1.53-.57,1.93l1.35.72,3.83-2.42-1.21-.64Z" style="fill:#455a64"></path><path d="M346.44,231.89c-.19,1.14-1.61,1.9-3.84,2.42l1.22.64a4.78,4.78,0,0,0,3.83-2.42Z" style="fill:#BA68C8"></path><path d="M294.78,212.27c-3.53.35-8.28,3.06-9.65,9.53s-3,27.29-3.22,30.17-.21,5.23,6.82,7.18c7.93,2.2,20.62,2.69,24.21,2.74,6.6.1,10.92-2,12.88-5.89s2.35-8.93-3.45-6.26c-6.18,2.85-8.81,3-8.81,3l1.05-3.92c-1.94.94-3.48,3.69-5.44,4.1-1.74.35-15.22-3.73-15.22-3.73l2.9-17.54S300.52,216.86,294.78,212.27Z" style="fill:#b16668"></path><path d="M349,233.63c-.47-1.34-1.89,1.26-2.41,5.18-.49,3.74-1.22,7.67-1.22,7.67l-.9,3.21a14,14,0,0,0,4.24-5.86C350.56,239.58,350.32,237.4,349,233.63Z" style="fill:#b16668"></path></g></g><g id="freepik--character-1--inject-440"><g id="freepik--character--inject-440"><path d="M261.6,370.69l-.22,16.65a6.45,6.45,0,0,1-5.21,5.1c-4.5.78-5-4.83-5-4.83l-2.87-19.67Z" style="fill:#ffa8a7"></path><path d="M249.8,396.14a5.44,5.44,0,0,0,.27,1.92c.32.77,2.35,1.8,3.45,2.37a6.41,6.41,0,0,1,3.48,3.51,12.82,12.82,0,0,0,5.84,6.05,18.38,18.38,0,0,0,10.84,1.31c4.55-.74,5-3.41,5-3.41s.28-2.51-.84-2.93S249.8,396.14,249.8,396.14Z" style="fill:#263238"></path><path d="M251,386.4c-.35,0-.4.43-.49,1.58s-.56,2.6-.73,3.7a13.35,13.35,0,0,0-.06,4.8c1.22,2.21,3.88,1.92,6.34,4.27,2.26,2.16,4.4,7.19,10.32,8.48S276.9,408.7,278,407s.15-3.29-3.63-5.41c-4-2.26-9.22-8.86-9.22-8.86-.63-.9-1.26-1.79-1.84-2.74a7,7,0,0,1-.63-1.64l-.57-1.92c-.09-.29-.21-.62-.5-.72a1,1,0,0,0-.76.16,22.58,22.58,0,0,1-5.46,1.92,1,1,0,0,0-.6.27,1.08,1.08,0,0,0-.06.9,4.16,4.16,0,0,1,0,1.22c0,.18-.09.4-.27.43s-.3-.16-.38-.32l-.81-1.53a2.42,2.42,0,0,0-1.27-1.17,6,6,0,0,1-.91-.58Z" style="fill:#455a64"></path><path d="M262.6,407.74a7.56,7.56,0,0,1,4.51-6.38c4.53-2.21,7.23-.69,8.58.32,1.62,1.21,3.91,3.71,2.46,5.46-1.57,1.9-4,2.78-8.61,2.75A10.92,10.92,0,0,1,262.6,407.74Z" style="fill:#fafafa"></path><path d="M256.69,393.73a.51.51,0,0,0,.42-.21c.52-.7,3.83-3.29,7-2.36.17-.36-.09-.74-.73-1.14-3.3-.36-6.45,2.08-7.08,2.93a.48.48,0,0,0,.13.69A.55.55,0,0,0,256.69,393.73Z" style="fill:#fafafa"></path><path d="M265.84,393.56a1.53,1.53,0,0,0-.87-1.11,9.42,9.42,0,0,0-6.67,3,.47.47,0,0,0,.12.68.5.5,0,0,0,.31.1.55.55,0,0,0,.41-.21C259.65,395.31,262.79,392.85,265.84,393.56Z" style="fill:#fafafa"></path><path d="M270.7,398.75a2.9,2.9,0,0,0-1.39-1.35,9.34,9.34,0,0,0-6.94,3,.48.48,0,0,0,.12.69.56.56,0,0,0,.31.09.51.51,0,0,0,.41-.2C263.76,400.19,267.42,397.34,270.7,398.75Z" style="fill:#fafafa"></path><path d="M260.76,398.66a.5.5,0,0,0,.41-.2c.52-.69,3.76-3.23,6.87-2.39a1.76,1.76,0,0,0-1-1.15,9.44,9.44,0,0,0-6.67,3,.48.48,0,0,0,.13.69A.43.43,0,0,0,260.76,398.66Z" style="fill:#fafafa"></path><path d="M286.52,357.3l.84,16.63a6.44,6.44,0,0,1-4.87,5.42c-4.44,1.06-5.25-4.51-5.25-4.51l-4.12-19.45Z" style="fill:#ffa8a7"></path><path d="M276.36,383.44a5.65,5.65,0,0,0,.39,1.9c.37.75,2.46,1.64,3.6,2.14a6.43,6.43,0,0,1,3.7,3.28,12.81,12.81,0,0,0,6.21,5.67,18.34,18.34,0,0,0,10.9.62c4.5-1,4.75-3.72,4.75-3.72s.12-2.52-1-2.87S276.36,383.44,276.36,383.44Z" style="fill:#263238"></path><path d="M277,373.64c-.34.07-.37.46-.38,1.61s-.4,2.63-.5,3.74a13.54,13.54,0,0,0,.24,4.79c1.37,2.13,4,1.67,6.61,3.87,2.39,2,4.84,6.89,10.84,7.8s10.42-1.2,11.44-2.94-.06-3.29-4-5.17c-4.15-2-9.77-8.25-9.77-8.25-.68-.86-1.37-1.7-2-2.62a6.55,6.55,0,0,1-.73-1.59c-.23-.63-.46-1.26-.7-1.88-.1-.29-.25-.61-.54-.69a1,1,0,0,0-.75.2,22.4,22.4,0,0,1-5.33,2.27,1,1,0,0,0-.57.31c-.19.25-.09.6,0,.91a4.44,4.44,0,0,1,.11,1.21c0,.18-.06.4-.24.44s-.31-.14-.4-.29c-.3-.49-.6-1-.91-1.48a2.49,2.49,0,0,0-1.34-1.09,6,6,0,0,1-.95-.51Z" style="fill:#455a64"></path><path d="M289.88,394.21a7.55,7.55,0,0,1,4.1-6.66c4.37-2.5,7.16-1.15,8.58-.22,1.69,1.1,4.14,3.44,2.8,5.29s-3.85,3-8.42,3.29A10.94,10.94,0,0,1,289.88,394.21Z" style="fill:#fafafa"></path><path d="M283.09,380.6a.54.54,0,0,0,.4-.23c.48-.74,3.61-3.54,6.8-2.81.15-.37-.13-.73-.8-1.09-3.32-.14-6.3,2.49-6.88,3.38a.49.49,0,0,0,.17.68A.59.59,0,0,0,283.09,380.6Z" style="fill:#fafafa"></path><path d="M292.21,379.85a1.58,1.58,0,0,0-.94-1.06,9.42,9.42,0,0,0-6.47,3.39.49.49,0,0,0,.17.68.48.48,0,0,0,.31.07.51.51,0,0,0,.4-.23C286.14,382,289.12,379.33,292.21,379.85Z" style="fill:#fafafa"></path><path d="M297.39,384.72a2.94,2.94,0,0,0-1.47-1.26,9.27,9.27,0,0,0-6.74,3.39.47.47,0,0,0,.16.67.61.61,0,0,0,.32.08.55.55,0,0,0,.39-.24C290.56,386.59,294,383.52,297.39,384.72Z" style="fill:#fafafa"></path><path d="M287.47,385.26a.48.48,0,0,0,.39-.23c.48-.72,3.55-3.46,6.7-2.82a1.75,1.75,0,0,0-1.11-1.08,9.43,9.43,0,0,0-6.46,3.38.48.48,0,0,0,.16.68A.52.52,0,0,0,287.47,385.26Z" style="fill:#fafafa"></path><path d="M222.7,278.91c-1.19,6.69-1.56,10.48.8,17.23s7.84,17.5,17.28,22.79c7.82,4.38,19.69,8.77,22,9.87,2.9,1.39,3.43,2.42,3.85,7.31.62,7.11,2.07,10.3,4.81,18.33,1.24,3.63,4.42,13.76,4.42,13.76,3.12.83,8.23-.22,11.33-1.95,0,0-2.11-41.13-4.17-46.86s-21-15-27.42-18.69-10-6-17.32-11Z" style="fill:#37474f"></path><path d="M262.75,328.8c2.9,1.39,3.43,2.42,3.85,7.31a46.16,46.16,0,0,0,2.74,12.37c-.42-1.85-1.29-8.28-1.41-9.42-.57-5.27-.3-8.8-1-10.53s-7.41-5.18-7.41-5.18l-16.55-14c3-3.5,2.2-9.16,2.2-9.16a13,13,0,0,1-6.36,9.91c3.17,2.47,16.47,15.09,17.47,16C259.4,327.39,261.84,328.36,262.75,328.8Z" style="fill:#263238"></path><path d="M239.23,299.62a52.66,52.66,0,0,1-4.74,6l1.35,1.12A19,19,0,0,0,239.23,299.62Z" style="fill:#37474f"></path><path d="M202.41,303.63c1,8.4,3.26,12.63,5.59,15.22,3.5,3.9,6.66,6.28,16.1,11.57,7.82,4.38,15.37,9.72,17.52,11.06,2.44,1.52,3.09,2.73,3.14,6,.2,10.95,3.26,23.32,4.87,33.77,0,0,7.39,3.05,12-1.32,0,0,2.82-43.44.75-49.17s-27.85-25.16-27.85-25.16,2.16-9.18,3.76-15.86Z" style="fill:#37474f"></path><path d="M229.13,247.24c4-.18,8.44.53,10.67,3.6,3,4.07,8.71,20.41,10.45,28.52.48,2.22-9.89,6.9-9.89,6.9l-5.93-14.68Z" style="fill:#f28f8f"></path><path d="M229.8,247.11c4.44-.14,7.51.78,9.49,2.78s4.05,7,5.11,9.91,3.35,10.06,3.35,10.06-3.26,4.08-11.79,5.05C233.74,266.65,229.8,247.11,229.8,247.11Z" style="fill:#BA68C8"></path><path d="M198.76,254.19c-.49,3.4-1.26,29.28,4.15,52.73,10.61,5.48,37.26-2.48,39.94-15.43a51.35,51.35,0,0,1-4.56-9.49c-.08-6.62-.65-17.27-1-21.16-.6-7.72-3.79-12.94-7.53-13.73l-12.41-.22-7,1.16S199.06,252.07,198.76,254.19Z" style="fill:#455a64"></path><path d="M209.52,214.49a6.2,6.2,0,0,0-4.75,3.31c-1,2-.37,5.95.7,11.2a47.3,47.3,0,0,0,2.84,9.92,4,4,0,0,0,2.23,1.94l.1-6.18,0-4.32s3.84,1.33,5-4.91c.76-3.93.28-5.23.28-5.23Z" style="fill:#263238"></path><path d="M214,221.41a11.54,11.54,0,1,0,12-11.1A11.56,11.56,0,0,0,214,221.41Z" style="fill:#263238"></path><path d="M212.05,229.94c-1.18.3-1.66-1.76-2.5-2.71a3.69,3.69,0,0,0-5.59.68c-2.07,2.67,0,7.2,2.1,8.28,3.05,1.57,4.58-1.51,4.58-1.51l-.25,14s.71,2.65,6,4.75c4.11,1.64,10.32-.57,6.61-4.69l.15-4.24a17.68,17.68,0,0,0,6,.35c2.08-.31,3.75-1.87,4.83-5.08,2.11-6.25,2-14.61-.15-22.24-3.07-2.59-11.08-1.22-17.91,2.72C215.37,228.84,213.38,229.6,212.05,229.94Z" style="fill:#ffa8a7"></path><path d="M221.47,236.1l5.48,1.53a2.72,2.72,0,0,1-3.41,2A3,3,0,0,1,221.47,236.1Z" style="fill:#b16668"></path><path d="M221.66,238a2.39,2.39,0,0,1,3.85,1.46,2.72,2.72,0,0,1-2,.19A3,3,0,0,1,221.66,238Z" style="fill:#f28f8f"></path><path d="M236.53,210a.51.51,0,0,0-.4-.33.66.66,0,0,0-.4.15,19,19,0,0,1-2.59,1.59,9.05,9.05,0,0,0,.18-3.44c-.1-.7-.23-2.33-1.08-2.54-.52-.12-1,.29-1.38.63-3.6,3.1-8.06,1.42-12.24,1.38-3.5,0-7.77,1.21-9.49,4.55-.79,1.52-1,3.15.4,4.28a34.62,34.62,0,0,0,6.39,4c3.77,1.29,13.68,3.05,19.09-3.22a10.27,10.27,0,0,0,1.84-4.16,5.17,5.17,0,0,0-.31-2.84Z" style="fill:#263238"></path><path d="M223.12,244.47s-5.2-1.53-7.25-3a9.94,9.94,0,0,1-3.19-3.65,10.56,10.56,0,0,0,1.83,4.6c2.48,2.83,8.55,3.72,8.55,3.72Z" style="fill:#f28f8f"></path><path d="M223.5,229.33a1.27,1.27,0,1,1-1.22-1.37A1.3,1.3,0,0,1,223.5,229.33Z" style="fill:#263238"></path><path d="M222.53,223.83l-2.82,1.29a1.63,1.63,0,0,1,.8-2.11A1.5,1.5,0,0,1,222.53,223.83Z" style="fill:#263238"></path><path d="M234.08,224.79l-3-1a1.5,1.5,0,0,1,1.93-1A1.63,1.63,0,0,1,234.08,224.79Z" style="fill:#263238"></path><path d="M233.12,228.87a1.28,1.28,0,0,1-1.31,1.27,1.32,1.32,0,1,1,1.31-1.27Z" style="fill:#263238"></path><polygon points="226.9 234.73 231.14 233.53 227.01 226.4 226.9 234.73" style="fill:#f28f8f"></polygon><path d="M256.21,272.18h0l-.86-.72h0a1,1,0,0,0-.88-.09L245.28,274a3.44,3.44,0,0,0-2.05,2l-6.42,19.26a.88.88,0,0,0,.13,1h0l.89.74h0a1,1,0,0,0,.89.1l9.2-2.62a3.43,3.43,0,0,0,2.06-2c1.26-3.78,5.16-15.47,6.42-19.26A.84.84,0,0,0,256.21,272.18Z" style="fill:#455a64"></path><path d="M245.14,275.28a3.32,3.32,0,0,0-1,1.42L237.67,296a.91.91,0,0,0,.1,1l-.84-.7h0a.87.87,0,0,1-.14-1L243.23,276a3.22,3.22,0,0,1,1-1.34Z" style="fill:#263238"></path><path d="M237.67,296l6.42-19.25a3.38,3.38,0,0,1,2-2l9.21-2.62c.85-.24,1.32.24,1,1.08-1.26,3.79-5.16,15.48-6.42,19.26a3.43,3.43,0,0,1-2.06,2l-9.2,2.62C237.85,297.28,237.39,296.8,237.67,296Z" style="fill:#37474f"></path><path d="M254.31,279.43c1.61-.41,2.53,1.34,2.29,4.34s-2.22,8.47-6.78,6.89c-1.78-.61-3-3.65-1-4.91a30.56,30.56,0,0,0,4.52-3.35Z" style="fill:#f28f8f"></path><path d="M196.74,295.48a82,82,0,0,1-5.41-22.79c-1.05-12.67,0-17.68,9.08-20.18,6.38,6.06,3.86,20.16,3.86,20.16.95,5.33,2.52,14.39,3.7,17.78,8.48.32,24.22-3.92,26-4.79a10.38,10.38,0,0,0,2.56-2.56,6.64,6.64,0,0,1,2.4-2c1.21-.58,2.2-.92,3.07-1.35l-1.34,4c.09.24.62.32.86.41a15,15,0,0,0,5.59.9c4-.15,7.77-2.88,6.87.6a10.11,10.11,0,0,1-3.19,5.68c-2.13,1.67-9.89,2.19-12.09,3.12,0,0-20.11,7.64-28.26,8.32C201.69,303.5,200.1,303.13,196.74,295.48Z" style="fill:#ffa8a7"></path><path d="M201.25,252c-4.42,1.11-8.18,2.06-10,8.24s.92,21.42.92,21.42,8.12,2.05,13.84-1.27l-1-7.71C205.71,263.81,205.08,256.45,201.25,252Z" style="fill:#BA68C8"></path></g></g><g id="freepik--Handles--inject-440"><g id="freepik--handles--inject-440"><path d="M281.33,218.48a.54.54,0,0,1-.54-.46l-3.45-23.66a.55.55,0,1,1,1.08-.16l3.45,23.66a.56.56,0,0,1-.46.62Z" style="fill:#37474f"></path><path d="M282.7,218.76a3.2,3.2,0,0,0-1.43-2.5,1,1,0,0,0-1-.1h0L267,223.84l2,3.53,13.3-7.68h0A1,1,0,0,0,282.7,218.76Z" style="fill:#455a64"></path><path d="M268,224a3.19,3.19,0,0,1,1.44,2.49c0,.92-.65,1.29-1.44.83a3.19,3.19,0,0,1-1.44-2.49C266.52,223.86,267.17,223.49,268,224Z" style="fill:#37474f"></path><path d="M268,224.64a1.87,1.87,0,0,1,.84,1.45c0,.54-.38.75-.84.49a1.87,1.87,0,0,1-.84-1.45C267.12,224.59,267.5,224.37,268,224.64Z" style="fill:#BA68C8"></path><path d="M268,226.14h-.1a.55.55,0,0,1-.44-.64l5.45-29,4.73-2.73a.54.54,0,1,1,.55.94l-4.3,2.48-5.35,28.46A.55.55,0,0,1,268,226.14Z" style="fill:#37474f"></path><path d="M310.37,48.65a3.07,3.07,0,0,0-3.13.29,9.81,9.81,0,0,0-4.43,7.68,3.1,3.1,0,0,0,1.26,2.82l2,1.14a3,3,0,0,0,3.13-.29,9.79,9.79,0,0,0,4.44-7.67,3.07,3.07,0,0,0-1.31-2.85Z" style="fill:#37474f"></path><ellipse cx="309.18" cy="55.18" rx="6.27" ry="3.62" transform="matrix(0.5, -0.87, 0.87, 0.5, 106.81, 295.35)" style="fill:#455a64"></ellipse><path d="M392.26,345.72a3.06,3.06,0,0,0,1.82,2.56,9.81,9.81,0,0,0,8.86,0,3.1,3.1,0,0,0,1.82-2.5c0-.4,0-1.92,0-2.29a3.07,3.07,0,0,0-1.82-2.57,9.81,9.81,0,0,0-8.86,0,3.07,3.07,0,0,0-1.82,2.56C392.27,343.86,392.27,345.34,392.26,345.72Z" style="fill:#37474f"></path><path d="M402.94,346a9.81,9.81,0,0,1-8.86,0c-2.45-1.41-2.45-3.7,0-5.12a9.81,9.81,0,0,1,8.86,0C405.39,342.34,405.39,344.63,402.94,346Z" style="fill:#455a64"></path><path d="M401.23,343.48V110a8.2,8.2,0,0,0-4.09-7.09l-86.58-50a1.36,1.36,0,0,0-1.38.13,4.27,4.27,0,0,0-1.93,3.34,1.37,1.37,0,0,0,.58,1.26l86.58,50a2.74,2.74,0,0,1,1.36,2.37V343.49a1.36,1.36,0,0,0,.8,1.12,4.3,4.3,0,0,0,3.86,0A1.34,1.34,0,0,0,401.23,343.48Z" style="fill:#e0e0e0"></path><path d="M399.68,124.18a4.27,4.27,0,0,0-1.92-3.33,1.36,1.36,0,0,0-1.37-.13h0l-137.9,79.62v6.28l140.65-81.2h0A1.35,1.35,0,0,0,399.68,124.18Z" style="fill:#ebebeb"></path><path d="M168.54,130.53a3.08,3.08,0,0,0-3.13.3A9.81,9.81,0,0,0,161,138.5a3.08,3.08,0,0,0,1.26,2.82c.34.21,1.66,1,2,1.15a3.07,3.07,0,0,0,3.13-.29,9.79,9.79,0,0,0,4.44-7.68,3.09,3.09,0,0,0-1.31-2.85C170.15,131.47,168.86,130.72,168.54,130.53Z" style="fill:#37474f"></path><path d="M162.92,139.62a9.81,9.81,0,0,1,4.43-7.67c2.45-1.42,4.44-.27,4.44,2.55a9.79,9.79,0,0,1-4.44,7.68C164.91,143.59,162.92,142.45,162.92,139.62Z" style="fill:#455a64"></path><path d="M250.43,427.61a3.07,3.07,0,0,0,1.82,2.56,9.81,9.81,0,0,0,8.86,0,3.1,3.1,0,0,0,1.81-2.51c0-.39,0-1.91,0-2.28a3,3,0,0,0-1.81-2.57,9.75,9.75,0,0,0-8.86,0,3.06,3.06,0,0,0-1.82,2.56Z" style="fill:#37474f"></path><path d="M261.11,427.93a9.81,9.81,0,0,1-8.86,0c-2.45-1.42-2.45-3.71,0-5.12a9.75,9.75,0,0,1,8.86,0C263.56,424.22,263.56,426.51,261.11,427.93Z" style="fill:#455a64"></path><path d="M259.4,425.37V191.83a8.21,8.21,0,0,0-4.1-7.09l-86.57-50a1.35,1.35,0,0,0-1.38.12,4.3,4.3,0,0,0-1.93,3.35,1.34,1.34,0,0,0,.58,1.25l86.58,50a2.73,2.73,0,0,1,1.36,2.36V425.37a1.36,1.36,0,0,0,.8,1.13,4.3,4.3,0,0,0,3.86,0A1.38,1.38,0,0,0,259.4,425.37Z" style="fill:#e0e0e0"></path><path d="M373.14,135.07a1.34,1.34,0,0,0-1.37-.13L366,138.25a1.36,1.36,0,0,1,1.37.13,4.26,4.26,0,0,1,1.92,3.33,1.36,1.36,0,0,1-.55,1.24l5.75-3.31a1.4,1.4,0,0,0,.54-1.24A4.24,4.24,0,0,0,373.14,135.07Z" style="fill:#455a64"></path><path d="M277.2,190.47a1.32,1.32,0,0,0-1.36-.13l-5.74,3.31a1.34,1.34,0,0,1,1.36.13,4.26,4.26,0,0,1,1.93,3.33,1.36,1.36,0,0,1-.55,1.24l5.74-3.31a1.38,1.38,0,0,0,.55-1.24A4.22,4.22,0,0,0,277.2,190.47Z" style="fill:#455a64"></path></g></g></svg>